                         =!DK GROUP HD BLURAY RELEAESEES!=
 
===================================================================================

      	
              Sahara(2005)1080p BDRip In[Hindi-Eng]6CH.AC3 By !!!dip


===================================================================================

Storyline:

Master explorer and former US Navy Seal Dirk Pitt and his wisecracking buddy Al Giordino goes on the adventure of a lifetime of seeking out a lost Civil War ironclad battleship known as the \"Ship of Death\" that protects a secret cargo is lost somewhere in the deserts of West Africa. But while the two cross paths with a beautiful and brilliant U.N. scientist Dr. Eva Rojas who is being hounded by a ruthless dictator. She believes that the hidden treasure may be connected to a larger problem that threatens the world around them. Hunting for a ship that no one else thinks exists, Dirk, Al, and Eva must rely on their wits and their daring heroics to outsmart dangerous warlords, survive the threatening terrain, and get to the bottom of both mysteries. 

Cast:

Matthew McConaughey......Dirk Pitt
Steve Zahn...............Al Giordino
Penélope Cruz............Eva Rojas
William H. Macy..........Admiral Jim Sandecker
Rainn Wilson.............Rudi Gunn
Delroy Lindo.............Carl
Lambert Wilson...........Yves Massarde
Lennie James.............General Zateb Kazim
Robert Cavanah...........Captain Tombs
Jude Akuwudike...........Imam
Mark Aspinall............Lawyer
Rakie Ayola..............Mrs. Nwokolo
Christopher Bello........Train Driver
Nicholas Beveney.........Gunboat 1 Officer
Empotoe Bosage...........Pick Up Truck Guard


Directors :Breck Eisner
Writers :Clive Cussler (novel), Thomas Dean Donnelly (screenplay)
Stars: Matthew McConaughey, Penélope Cruz and Steve Zahn
Genre: Action | Adventure | Comedy
Language:[English-Hindi]6CH.AC3
Format :Color, Dubbed,Widescreen
Encoder:Deep Shikha




Video Specifications:


Video
ID                               : 1
Format                           : AVC
Format/Info                      : Advanced Video Codec
Format profile                   : Main@L4.0
Format settings, CABAC           : Yes
Format settings, ReFrames        : 4 frames
Muxing mode                      : Header stripping
Codec ID                         : V_MPEG4/ISO/AVC
Duration                         : 1h 58mn
Bit rate                         : 3 244 Kbps
Width                            : 1 920 pixels
Height                           : 800 pixels
Display aspect ratio             : 2.40:1
Frame rate mode                  : Variable
Frame rate                       : 25.000 fps
Color space                      : YUV
Chroma subsampling               : 4:2:0
Bit depth                        : 8 bits
Scan type                        : Progressive
Bits/(Pixel*Frame)               : 0.084
Stream size                      : 2.69 GiB (77%)
Title                            : !!!dip
Team                             : DK Group HD Bluray Releases




Audio Specifications:

Audio #1
ID                               : 2
Format                           : AC-3
Format/Info                      : Audio Coding 3
Mode extension                   : CM (complete main)
Muxing mode                      : Header stripping
Codec ID                         : A_AC3
Duration                         : 1h 58mn
Bit rate mode                    : Constant
Bit rate                         : 448 Kbps
Channel(s)                       : 6 channels
Channel positions                : Front: L C R, Side: L R, LFE
Sampling rate                    : 48.0 KHz
Bit depth                        : 16 bits
Compression mode                 : Lossy
Delay relative to video          : 7ms
Stream size                      : 381 MiB (11%)
Title                            : !!!dip
Language                         : English

Audio #2
ID                               : 3
Format                           : AC-3
Format/Info                      : Audio Coding 3
Mode extension                   : CM (complete main)
Muxing mode                      : Header stripping
Codec ID                         : A_AC3
Duration                         : 1h 58mn
Bit rate mode                    : Constant
Bit rate                         : 448 Kbps
Channel(s)                       : 6 channels
Channel positions                : Front: L C R, Side: L R, LFE
Sampling rate                    : 48.0 KHz
Bit depth                        : 16 bits
Compression mode                 : Lossy
Delay relative to video          : 1s 20ms
Stream size                      : 381 MiB (11%)
Title                            : !!!dip
Language                         : Hindi

Text
ID                               : 4
Format                           : UTF-8
Codec ID                         : S_TEXT/UTF8
Codec ID/Info                    : UTF-8 Plain Text
Title                            : !!!dip
Language                         : English



SAMPLE IMAGE:

 
http://img406.imageshack.us/img406/3531/97545194.jpg
 
http://img15.imageshack.us/img15/2466/12066235.jpg
 
http://img638.imageshack.us/img638/1219/96503020.jpg
 
http://img69.imageshack.us/img69/6631/34742491.jpg
 
http://img214.imageshack.us/img214/954/63478707.jpg
 
http://img820.imageshack.us/img820/1619/56016706.jpg


VIDEO SAMPLE IS AVAILABLE

				